<svg id="Layer_1" data-name="Layer 1" xmlns="http://www.w3.org/2000/svg" viewBox="0 0 1000 194.38"><defs><style>.cls-1{fill:#7e54a2;}.cls-2{fill:#7f54a2;}</style></defs><title>hoovflight</title><path class="cls-1" d="M222.89,59.45v31.9h40V59.45h13.8v78.3h-13.8V105h-40v32.71H209.2V59.45Z"/><path class="cls-1" d="M338.77,59.45q17.17,0,26.27,9.74t9.11,29.58q0,19.72-9.11,29.35t-26.27,9.63H328.1q-17.17,0-26.27-9.63t-9.11-29.35q0-19.84,9.11-29.58t26.27-9.74ZM328.1,73.13q-11.37,0-16.53,6t-5.16,19.6q0,13.46,5.1,19.37t16.59,5.92h10.67q11.25,0,16.41-6t5.16-19.43q0-13.46-5.1-19.49t-16.47-6Z"/><path class="cls-1" d="M433.43,59.45q17.17,0,26.27,9.74t9.11,29.58q0,19.72-9.11,29.35t-26.27,9.63H422.75q-17.17,0-26.27-9.63t-9.11-29.35q0-19.84,9.11-29.58t26.27-9.74ZM422.75,73.13q-11.37,0-16.53,6t-5.16,19.6q0,13.46,5.1,19.37t16.59,5.92h10.67q11.25,0,16.41-6T455,98.65q0-13.46-5.1-19.49t-16.47-6Z"/><path class="cls-1" d="M488.06,59.45l23.78,63a3.81,3.81,0,0,0,3.83,2.67,4,4,0,0,0,3.83-2.67l24.94-63h15.2L532,129q-2.2,5.57-6.21,7.83a20.44,20.44,0,0,1-10.15,2.26,22,22,0,0,1-10-2.15q-4.24-2.14-6.44-7.95L473,59.45Z"/><path class="cls-1" d="M625.4,59.45V73.13H593.85a24.84,24.84,0,0,0-7.77,1,12.91,12.91,0,0,0-5,2.84,9.92,9.92,0,0,0-2.61,4.18,17,17,0,0,0-.75,5.16v7.42h47.21v13H577.73v31H564V86.47a35.69,35.69,0,0,1,1.57-10.85,21.4,21.4,0,0,1,5-8.53,23.67,23.67,0,0,1,9-5.63,38.56,38.56,0,0,1,13.28-2Z"/><path class="cls-1" d="M654.52,59.45V110.6a18.1,18.1,0,0,0,.75,5.28,9.83,9.83,0,0,0,2.61,4.29,12.91,12.91,0,0,0,4.93,2.84,24.29,24.29,0,0,0,7.71,1h30.39v13.69h-31.2a38.51,38.51,0,0,1-13.28-2,23.61,23.61,0,0,1-9-5.63,21.37,21.37,0,0,1-5-8.53,35.68,35.68,0,0,1-1.57-10.85V59.45Z"/><path class="cls-1" d="M727.48,59.45v78.3H713.8V59.45Z"/><path class="cls-1" d="M811.12,59.45V73.13H778.87q-11.37,0-16.53,6t-5.16,19.55q0,13.46,5.1,19.43t16.59,6h13q5.8,0,8.35-3.07a12,12,0,0,0,2.55-7.95q0-4.75-2.38-7.37t-7.25-2.61h-17.4V91.11h18.79q10.55,0,15.66,6t5.1,16.18a33.32,33.32,0,0,1-1.33,9.57,20.13,20.13,0,0,1-4.29,7.77,20.57,20.57,0,0,1-7.54,5.22,29.05,29.05,0,0,1-11.19,1.91H778.87q-17.17,0-26.27-9.69t-9.11-29.41q0-19.84,9.11-29.52t26.27-9.69Z"/><path class="cls-1" d="M844.64,59.45v31.9h40V59.45h13.8v78.3h-13.8V105h-40v32.71H831V59.45Z"/><path class="cls-1" d="M970.73,59.45V73.13H947.88v64.61h-13.8V73.13H911.22V59.45Z"/><path class="cls-2" d="M102.12,8.06c-63.64,0-76.21,54.6-76.21,54.6V182.51H178.33V62.66S165.76,8.06,102.12,8.06ZM94.36,167.39H40V160H94.36ZM72.72,64.3c0-16.06,13.7-29.09,30.61-29.09s30.61,13,30.61,29.09-13.7,29.09-30.61,29.09S72.72,80.37,72.72,64.3Zm94,103.09H112.28V160h54.41Z"/></svg>