<?xml version="1.0" encoding="utf-8"?>
<!-- Generator: Adobe Illustrator 21.1.0, SVG Export Plug-In . SVG Version: 6.00 Build 0)  -->
<svg version="1.1" id="Layer_1" xmlns="http://www.w3.org/2000/svg" xmlns:xlink="http://www.w3.org/1999/xlink" x="0px" y="0px"
	 viewBox="0 0 200 200" style="enable-background:new 0 0 200 200;" xml:space="preserve">
<style type="text/css">
	.st0{fill:none;stroke:#BABABA;stroke-width:28;stroke-linecap:round;stroke-linejoin:round;stroke-miterlimit:10;}
	.st1{fill:none;stroke:#9160BA;stroke-width:3;stroke-miterlimit:10;}
	.st2{fill:none;stroke:#FA0700;stroke-width:12;stroke-linejoin:bevel;stroke-miterlimit:10;}
	.st3{fill:#FA0700;}
	.st4{font-family:'MyriadPro-Regular';}
	.st5{font-size:23px;}
</style>
<g id="surface6">
	<path class="st0" d="M40,40h120 M100,40v120"/>
	<path class="st1" d="M128,160c0,15.5-12.5,28-28,28s-28-12.5-28-28s12.5-28,28-28S128,144.5,128,160 M80.2,140.2v-16.8 M80.2,140.2
		l16.8,2"/>
	<path class="st1" d="M188,40c0,15.5-12.5,28-28,28s-28-12.5-28-28s12.5-28,28-28S188,24.5,188,40 M140,20l2,17 M140,20h-17"/>
	<path class="st1" d="M68,40c0,15.5-12.5,28-28,28S12,55.5,12,40s12.5-28,28-28S68,24.5,68,40 M59.8,20.2l-2,16.8 M59.8,20.2h16.8"
		/>
	<path class="st2" d="M100,70v40"/>
	<path class="st3" d="M100,65L85,80h30L100,65"/>
	<text transform="matrix(1 0 0 1 94 166)" class="st4 st5">1</text>
	<text transform="matrix(1 0 0 1 34 47.1721)" class="st4 st5">3</text>
	<text transform="matrix(1 0 0 1 154 47.1721)" class="st4 st5">2</text>
</g>
</svg>
