<?xml version="1.0" encoding="utf-8"?>
<!-- Generator: Adobe Illustrator 21.1.0, SVG Export Plug-In . SVG Version: 6.00 Build 0)  -->
<svg version="1.1" id="Layer_1" xmlns="http://www.w3.org/2000/svg" xmlns:xlink="http://www.w3.org/1999/xlink" x="0px" y="0px"
	 viewBox="0 0 200 200" style="enable-background:new 0 0 200 200;" xml:space="preserve">
<style type="text/css">
	.st0{fill:none;stroke:#B8B8B8;stroke-width:28;stroke-linecap:round;stroke-linejoin:round;stroke-miterlimit:10;}
	.st1{fill:none;stroke:#9160BA;stroke-width:3;stroke-miterlimit:10;}
	.st2{fill:none;stroke:#000000;stroke-width:3;stroke-miterlimit:10;}
	.st3{fill:none;stroke:#FA0500;stroke-width:12;stroke-linejoin:bevel;stroke-miterlimit:10;}
	.st4{fill:#FA0500;}
	.st5{font-family:'MyriadPro-Regular';}
	.st6{font-size:23px;}
	.st7{fill:#FF0000;}
</style>
<g>
	<g>
		<path class="st0" d="M40,40h120 M100,40v120"/>
		<path class="st1" d="M40,68c-15.5,0-28-12.5-28-28s12.5-28,28-28s28,12.5,28,28S55.5,68,40,68 M60,20l-17,2 M60,20V3"/>
		<path class="st1" d="M160,12c15.5,0,28,12.5,28,28s-12.5,28-28,28s-28-12.5-28-28S144.5,12,160,12 M140.2,20.2l16.8,2 M140.2,20.2
			V3.4"/>
		<path class="st2" d="M140,140h28v28h-28V140z"/>
		<path class="st3" d="M100,70v40"/>
		<path class="st4" d="M100,65L85,80h30L100,65z"/>
		<path class="st1" d="M128,160c0,15.5-12.5,28-28,28s-28-12.5-28-28s12.5-28,28-28S128,144.5,128,160 M80,140l2,17 M80,140H63"/>
		<text transform="matrix(1 0 0 1 93.744 167.1946)" class="st5 st6">1</text>
		<text transform="matrix(1 0 0 1 153.744 47.1946)" class="st5 st6">2</text>
		<text transform="matrix(1 0 0 1 33.744 47.1946)" class="st5 st6">3</text>
	</g>
	<g>
		<path class="st7" d="M82.1,193.2c-0.1-0.1-0.2-0.1-0.3-0.1c-0.1,0-0.2,0-0.4,0c-0.5,0-0.9,0.2-1.2,0.5c-0.3,0.3-0.4,0.8-0.4,1.4
			v2.9h-0.9v-5.5h0.9v0.8c0.2-0.3,0.4-0.6,0.7-0.7c0.3-0.2,0.7-0.2,1.1-0.2c0.1,0,0.1,0,0.2,0c0.1,0,0.2,0,0.2,0L82.1,193.2
			L82.1,193.2z"/>
		<path class="st7" d="M87.5,194.9v0.4h-4.1c0,0.6,0.2,1.1,0.6,1.4c0.3,0.3,0.8,0.5,1.4,0.5c0.3,0,0.7,0,1-0.1
			c0.3-0.1,0.6-0.2,1-0.4v0.8c-0.3,0.1-0.7,0.2-1,0.3s-0.7,0.1-1,0.1c-0.9,0-1.6-0.3-2.1-0.8c-0.5-0.5-0.8-1.2-0.8-2.1
			c0-0.9,0.2-1.6,0.7-2.1c0.5-0.5,1.1-0.8,2-0.8c0.7,0,1.3,0.2,1.7,0.7C87.3,193.4,87.5,194.1,87.5,194.9L87.5,194.9z M86.6,194.6
			c0-0.5-0.1-0.9-0.4-1.2c-0.3-0.3-0.6-0.4-1.1-0.4c-0.5,0-0.9,0.1-1.2,0.4c-0.3,0.3-0.5,0.7-0.5,1.2L86.6,194.6L86.6,194.6z"/>
		<path class="st7" d="M88.3,192.4h1L91,197l1.7-4.6h1l-2.1,5.5h-1.2L88.3,192.4z"/>
		<path class="st7" d="M99.5,194.9v0.4h-4.1c0,0.6,0.2,1.1,0.6,1.4c0.3,0.3,0.8,0.5,1.4,0.5c0.3,0,0.7,0,1-0.1
			c0.3-0.1,0.6-0.2,1-0.4v0.8c-0.3,0.1-0.7,0.2-1,0.3s-0.7,0.1-1,0.1c-0.9,0-1.6-0.3-2.1-0.8c-0.5-0.5-0.8-1.2-0.8-2.1
			c0-0.9,0.2-1.6,0.7-2.1c0.5-0.5,1.1-0.8,2-0.8c0.7,0,1.3,0.2,1.7,0.7C99.3,193.4,99.5,194.1,99.5,194.9L99.5,194.9z M98.6,194.6
			c0-0.5-0.1-0.9-0.4-1.2c-0.3-0.3-0.6-0.4-1.1-0.4c-0.5,0-0.9,0.1-1.2,0.4c-0.3,0.3-0.5,0.7-0.5,1.2L98.6,194.6L98.6,194.6z"/>
		<path class="st7" d="M104.2,193.2c-0.1-0.1-0.2-0.1-0.3-0.1c-0.1,0-0.2,0-0.4,0c-0.5,0-0.9,0.2-1.2,0.5c-0.3,0.3-0.4,0.8-0.4,1.4
			v2.9H101v-5.5h0.9v0.8c0.2-0.3,0.4-0.6,0.7-0.7c0.3-0.2,0.7-0.2,1.1-0.2c0.1,0,0.1,0,0.2,0c0.1,0,0.2,0,0.2,0L104.2,193.2
			L104.2,193.2z"/>
		<path class="st7" d="M108.6,192.6v0.8c-0.3-0.1-0.5-0.2-0.8-0.3c-0.3-0.1-0.6-0.1-0.8-0.1c-0.4,0-0.8,0.1-1,0.2
			c-0.2,0.1-0.3,0.3-0.3,0.6c0,0.2,0.1,0.4,0.2,0.5c0.2,0.1,0.5,0.2,1,0.3l0.3,0.1c0.6,0.1,1.1,0.3,1.4,0.6c0.3,0.2,0.4,0.6,0.4,1
			c0,0.5-0.2,0.9-0.6,1.2c-0.4,0.3-1,0.4-1.7,0.4c-0.3,0-0.6,0-0.9-0.1c-0.3-0.1-0.6-0.1-1-0.3v-0.9c0.3,0.2,0.7,0.3,1,0.4
			c0.3,0.1,0.6,0.1,1,0.1c0.4,0,0.7-0.1,1-0.2c0.2-0.1,0.3-0.4,0.3-0.6c0-0.2-0.1-0.4-0.2-0.6c-0.2-0.1-0.5-0.3-1.1-0.4l-0.3-0.1
			c-0.6-0.1-1-0.3-1.2-0.5c-0.2-0.2-0.4-0.6-0.4-1c0-0.5,0.2-0.9,0.5-1.2c0.4-0.3,0.9-0.4,1.6-0.4c0.3,0,0.6,0,0.9,0.1
			C108.1,192.4,108.4,192.5,108.6,192.6L108.6,192.6z"/>
		<path class="st7" d="M115,194.9v0.4h-4.1c0,0.6,0.2,1.1,0.6,1.4c0.3,0.3,0.8,0.5,1.4,0.5c0.3,0,0.7,0,1-0.1c0.3-0.1,0.6-0.2,1-0.4
			v0.8c-0.3,0.1-0.7,0.2-1,0.3s-0.7,0.1-1,0.1c-0.9,0-1.6-0.3-2.1-0.8c-0.5-0.5-0.8-1.2-0.8-2.1c0-0.9,0.2-1.6,0.7-2.1
			c0.5-0.5,1.1-0.8,2-0.8c0.7,0,1.3,0.2,1.7,0.7C114.8,193.4,115,194.1,115,194.9L115,194.9z M114.1,194.6c0-0.5-0.1-0.9-0.4-1.2
			c-0.3-0.3-0.6-0.4-1.1-0.4c-0.5,0-0.9,0.1-1.2,0.4c-0.3,0.3-0.5,0.7-0.5,1.2L114.1,194.6L114.1,194.6z"/>
		<path class="st7" d="M120.1,193.2v-3h0.9v7.6h-0.9V197c-0.2,0.3-0.4,0.6-0.7,0.7c-0.3,0.2-0.6,0.2-1,0.2c-0.7,0-1.2-0.3-1.6-0.8
			c-0.4-0.5-0.6-1.2-0.6-2.1s0.2-1.6,0.6-2.1c0.4-0.5,1-0.8,1.6-0.8c0.4,0,0.7,0.1,1,0.2C119.6,192.7,119.9,192.9,120.1,193.2z
			 M117,195.1c0,0.7,0.1,1.2,0.4,1.6c0.3,0.4,0.6,0.6,1.1,0.6c0.5,0,0.8-0.2,1.1-0.6c0.3-0.4,0.4-0.9,0.4-1.6c0-0.7-0.1-1.2-0.4-1.6
			c-0.3-0.4-0.6-0.6-1.1-0.6c-0.5,0-0.8,0.2-1.1,0.6C117.1,194,117,194.5,117,195.1z"/>
	</g>
</g>
</svg>
